<?xml version="1.0" encoding="UTF-8"?><svg id="a" xmlns="http://www.w3.org/2000/svg" viewBox="0 0 64 64"><path d="M63.6,48.2c-.4,8.4-7.1,15.1-15.4,15.4-10.7.4-21.5.4-32.2,0-8.4-.4-15.1-7.1-15.4-15.5-.4-10.8-.4-21.6,0-32.3C.9,7.4,7.6.7,16,.3c10.7-.4,21.5-.4,32.2,0,8.4.4,15.1,7.1,15.4,15.4.5,10.8.5,21.6,0,32.4Z" fill="#fff"/><path d="M10.3,46.3c-7.8.2-7.8-13,0-12.8,7.8-.2,7.8,13,0,12.8Z"/><path d="M46.6,45.6v9h-29.1v-9h29.1Z"/><path d="M53.9,46.3c-7.8.2-7.8-13,0-12.8,7.8-.2,7.8,13,0,12.8Z"/></svg>