<?xml version="1.0" encoding="UTF-8"?><svg id="a" xmlns="http://www.w3.org/2000/svg" viewBox="0 0 64 64"><path d="M63.6,48.2c-.4,8.4-7.1,15.1-15.4,15.4-10.7.4-21.5.4-32.2,0-8.4-.4-15.1-7.1-15.4-15.5C0,37.4,0,26.6.4,15.8.8,7.4,7.5.7,15.9.3c10.7-.4,21.5-.4,32.2,0,8.4.4,15.1,7.1,15.4,15.4.5,10.8.5,21.6,0,32.4Z" fill="#fff"/><path d="M11,55.3c-3.8,0-8-2.2-8-6.6h5.3c0,1.9,2.6,2.5,4,1.8,1.6-.7,1.5-3.2-.2-3.8-.8-.4-2.6-.2-3.5-.3v-3.9c.9,0,2.6.1,3.4-.3,1.6-.6,1.7-2.9.2-3.7-1.4-.7-3.7,0-3.7,1.9H3.4c0-7.1,10.6-8.5,14.1-3.6,2.1,2.9.5,7.1-3.1,7.3h0c4.2.2,6.1,4.8,3.7,8.1-1.6,2.2-4.3,3-7.1,3Z"/><path d="M22,55.4c-3.6,0-3.6-5.7,0-5.6,3.6,0,3.6,5.7,0,5.6Z"/><path d="M38.7,55v4h-13.3v-4h13.3Z"/><path d="M42,55.4c-3.6,0-3.6-5.7,0-5.6,3.6,0,3.6,5.7,0,5.6Z"/><path d="M52.7,55.3c-3.8,0-8-2.2-8-6.6h5.3c0,1.9,2.6,2.5,4,1.8,1.6-.7,1.5-3.2-.2-3.8-.8-.4-2.6-.2-3.5-.3v-3.9c.9,0,2.6.1,3.4-.3,1.6-.6,1.7-2.9.2-3.7-1.4-.7-3.7,0-3.7,1.9h-5.1c0-7.1,10.6-8.5,14.1-3.6,2.1,2.9.5,7.1-3.1,7.3h0c4.2.2,6.1,4.8,3.7,8.1-1.6,2.2-4.3,3-7.1,3Z"/></svg>