<?xml version="1.0" encoding="UTF-8"?><svg id="a" xmlns="http://www.w3.org/2000/svg" viewBox="0 0 591.5 498"><defs><style>.b{fill:#fff;}</style></defs><path class="b" d="M174.6,159.7c-.4,8.1-6.9,14.6-15,15h0s0,0,0,0c-10.4.4-20.8.4-31.2,0h0c-8.1-.4-14.6-6.9-15-15h0q0,0,0,0c-.4-10.4-.4-20.9,0-31.3h0s0,0,0,0c.4-8.1,6.9-14.6,15-15h0s0,0,0,0c10.4-.4,20.8-.4,31.2,0h0c8.1.4,14.6,6.9,15,15h0q0,0,0,0c.4,10.4.4,20.9,0,31.3h0s0,0,0,0Z"/><path d="M124.6,168.2c-1.4,0-2.6-.2-3.6-.7s-1.9-1.1-2.5-1.9c-.6-.8-.9-1.8-.9-2.9h4.7c0,.3.1.6.3.9.2.3.5.5.8.6.4.1.8.2,1.2.2s.8,0,1.1-.2c.3-.2.6-.4.8-.6.2-.3.3-.6.3-.9s-.1-.7-.3-.9-.5-.5-.9-.6c-.4-.2-.8-.2-1.3-.2h-1.8v-3.2h1.8c.5,0,.9,0,1.2-.2.4-.2.6-.4.8-.6s.3-.6.3-.9,0-.6-.3-.9c-.2-.3-.4-.5-.7-.6-.3-.1-.6-.2-1-.2s-.8,0-1.2.2c-.3.2-.6.4-.8.6-.2.3-.3.6-.3.9h-4.5c0-1.1.3-2,.9-2.8.6-.8,1.4-1.4,2.4-1.9,1-.5,2.2-.7,3.5-.7s2.4.2,3.4.7c1,.4,1.7,1,2.3,1.8.6.8.8,1.6.8,2.6s-.3,1.8-1,2.4c-.7.6-1.5,1-2.5,1.1h0c1.4.3,2.4.7,3.1,1.4.7.7,1,1.6,1,2.6s-.3,1.9-.9,2.7c-.6.8-1.5,1.4-2.5,1.8-1.1.4-2.3.7-3.7.7Z"/><path d="M135.2,168.2c-.7,0-1.2-.2-1.7-.7-.5-.4-.7-1-.7-1.7s.2-1.2.7-1.7c.5-.4,1-.7,1.7-.7s1.2.2,1.7.7c.5.4.7,1,.7,1.7s-.2,1.2-.7,1.7c-.5.4-1,.7-1.7.7Z"/><path d="M149.9,168v3.3h-11.7v-3.3h11.7Z"/><path d="M152.8,168.2c-.7,0-1.2-.2-1.7-.7-.5-.4-.7-1-.7-1.7s.2-1.2.7-1.7c.5-.4,1-.7,1.7-.7s1.2.2,1.7.7c.5.4.7,1,.7,1.7s-.2,1.2-.7,1.7c-.5.4-1,.7-1.7.7Z"/><path d="M163.1,168.2c-1.4,0-2.6-.2-3.6-.7s-1.9-1.1-2.5-1.9c-.6-.8-.9-1.8-.9-2.9h4.7c0,.3.1.6.3.9.2.3.5.5.8.6.4.1.8.2,1.2.2s.8,0,1.1-.2c.3-.2.6-.4.8-.6.2-.3.3-.6.3-.9s-.1-.7-.3-.9-.5-.5-.9-.6c-.4-.2-.8-.2-1.3-.2h-1.8v-3.2h1.8c.5,0,.9,0,1.2-.2.4-.2.6-.4.8-.6s.3-.6.3-.9,0-.6-.3-.9c-.2-.3-.4-.5-.7-.6-.3-.1-.6-.2-1-.2s-.8,0-1.2.2c-.3.2-.6.4-.8.6-.2.3-.3.6-.3.9h-4.5c0-1.1.3-2,.9-2.8.6-.8,1.4-1.4,2.4-1.9,1-.5,2.2-.7,3.5-.7s2.4.2,3.4.7c1,.4,1.8,1,2.3,1.8.6.8.8,1.6.8,2.6s-.3,1.8-1,2.4c-.7.6-1.5,1-2.5,1.1h0c1.4.3,2.4.7,3.1,1.4.7.7,1,1.6,1,2.6s-.3,1.9-.9,2.7c-.6.8-1.5,1.4-2.5,1.8-1.1.4-2.3.7-3.7.7Z"/><path class="b" d="M590,428.9c-1.7,36.6-31,66-67.6,67.6h0s0,0,0,0c-47,2-94.1,2-141.1,0h0s0,0,0,0c-36.6-1.7-66-31-67.6-67.6v-.2s0,0,0,0c-2-47.2-2-94.4,0-141.6h0s0-.2,0-.2c1.7-36.6,31-66,67.6-67.6h0s0,0,0,0c47-2,94.1-2,141.1,0h0s0,0,0,0c36.6,1.7,66,31,67.6,67.6v.2s0,0,0,0c2,47.2,2,94.4,0,141.6h0s0,.2,0,.2Z"/></svg>